<svg xmlns="http://www.w3.org/2000/svg" viewBox="0 0 243.06 20.65" class="top_logo position-absolute"><defs><style>.cls-1{fill:#00d800;}.cls-2{fill:#2b3c57;}</style></defs><g id="Layer_2" data-name="Layer 2"><g id="Layer_1-2" data-name="Layer 1"><g id="Group_1625" data-name="Group 1625"><g id="Group_2" data-name="Group 2"><g id="Group_1" data-name="Group 1"><path id="Path_1" data-name="Path 1" class="cls-1" d="M21.69.29,17.4,20.34H13.61l4.3-20Z"/><path id="Path_2" data-name="Path 2" class="cls-1" d="M148.11.29l-4.3,20.05H140l4.3-20Z"/><path id="Path_3" data-name="Path 3" class="cls-1" d="M206.2.29l-4.3,20.05h-3.78l4.29-20Z"/><path id="Path_4" data-name="Path 4" class="cls-2" d="M40,20.34H36l-4.18-7.81H28.55v7.82H24.86V.29h7.93a6.7,6.7,0,0,1,4.73,1.62,5.55,5.55,0,0,1,1.75,4.28,5.9,5.9,0,0,1-1,3.48,5.94,5.94,0,0,1-2.84,2.17ZM28.55,3.5V9.32h3.81a3.14,3.14,0,0,0,2.28-.82,2.84,2.84,0,0,0,.85-2.1,2.77,2.77,0,0,0-.84-2.12,3.22,3.22,0,0,0-2.29-.77Z"/><path id="Path_5" data-name="Path 5" class="cls-2" d="M55.75,14.84a5.06,5.06,0,0,1-2,4.3,8,8,0,0,1-5,1.49,7.78,7.78,0,0,1-5.42-1.73,6.31,6.31,0,0,1-2-4.68H45a3.47,3.47,0,0,0,1.1,2.36,4.53,4.53,0,0,0,4.92.23A2.1,2.1,0,0,0,51.93,15a2.38,2.38,0,0,0-1.24-2.19,8.43,8.43,0,0,0-1.16-.59c-.34-.13-.81-.28-1.4-.45L47,11.38q-5-1.52-5-5.58a5.21,5.21,0,0,1,1.92-4.22A7.45,7.45,0,0,1,48.73,0a7.11,7.11,0,0,1,4.9,1.64,5.67,5.67,0,0,1,1.94,4.26H51.85a3.08,3.08,0,0,0-.92-2,3.07,3.07,0,0,0-2.17-.73,3.47,3.47,0,0,0-2.18.66,2.14,2.14,0,0,0-.83,1.75A2.1,2.1,0,0,0,46,6.69a2.18,2.18,0,0,0,.85.8,5.85,5.85,0,0,0,1,.5c.32.12.74.26,1.28.43l1,.32c.49.15.94.3,1.33.46A10.14,10.14,0,0,1,53,9.93,6,6,0,0,1,54.35,11a5.77,5.77,0,0,1,1.39,3.8Z"/><path id="Path_6" data-name="Path 6" class="cls-2" d="M73.09.29V3.67H67.42V20.34H63.64V3.67H58V.29Z"/><path id="Path_7" data-name="Path 7" class="cls-2" d="M92.67.29A9.54,9.54,0,0,1,99.85,3a10.17,10.17,0,0,1,2.59,7.35,10.17,10.17,0,0,1-2.59,7.33,9.51,9.51,0,0,1-7.18,2.7h-7V.29ZM92.52,17a5.5,5.5,0,0,0,4.54-1.84,7.53,7.53,0,0,0,1.5-4.91,7.07,7.07,0,0,0-1.5-4.79,5.67,5.67,0,0,0-4.54-1.74H89.43V17Z"/><path id="Path_8" data-name="Path 8" class="cls-2" d="M109.15,17.05h10v3.29H105.46V.29h13.43v3.3h-9.74v5h8.4v3.21h-8.4Z"/><path id="Path_9" data-name="Path 9" class="cls-2" d="M138,20.34h-4l-4.18-7.82h-3.27v7.82h-3.69V.29h7.93a6.7,6.7,0,0,1,4.73,1.62,5.58,5.58,0,0,1,1.75,4.28,5.84,5.84,0,0,1-3.87,5.65ZM126.51,3.5V9.32h3.81a3.14,3.14,0,0,0,2.28-.82,2.77,2.77,0,0,0,.85-2.1,2.76,2.76,0,0,0-.83-2.12,3.26,3.26,0,0,0-2.29-.77Z"/></g><path id="Path_10" data-name="Path 10" class="cls-2" d="M11.25,12.11l.65-3H3.78V3.76H13L13.78.29H0V20.34H3.78v-8h7.39Z"/></g><path id="Path_11" data-name="Path 11" class="cls-2" d="M164.54.29h4l-6.84,20.05h-4.56l-6.84-20h4.06l5,15h.23Z"/><path id="Path_12" data-name="Path 12" class="cls-2" d="M180.82,20.34l-1.63-4.84h-7.5l-1.64,4.84h-4l7.16-20h4.55l7.14,20.05Zm-8.11-8h5.44l-2.6-7.73h-.23Z"/><path id="Path_13" data-name="Path 13" class="cls-2" d="M198.12.29V3.67h-5.67V20.34h-3.78V3.67H183V.29Z"/><path id="Path_14" data-name="Path 14" class="cls-2" d="M222.85.29h4L220,20.34h-4.55l-6.85-20h4.07l5,15h.22Z"/><path id="Path_15" data-name="Path 15" class="cls-2" d="M233,17.05h10v3.29H229.34V.29h13.44v3.3H233v5h8.39v3.21H233Z"/></g></g></g></svg>